#!OML:ASF X:\für Bonn\!DataBase\2005_08_12_Daniel\c3d\Daniel.ASF
:FULLY-SPECIFIED
:DEGREES
94
root 0.0376266 16.1533 1.83577 184.706 -8.98501 -182.705
lowerback 71.3719 -3.7612 16.0219
upperback 11.0944 -1.34187 -2.18094
thorax -7.97593 -3.24799 -7.85777
lowerneck 3.11606 -7.11878 -1.40481
upperneck 5.98953 -9.91078 4.96
head 1.70178 -4.91506 1.71861
rclavicle 4.77083e-014 -5.20816e-014
rhumerus 206.335 -173.638 -256.726
rradius 17.6529
rwrist -8.6519
rhand -21.5154 14.3517
rfingers 7.12502
rthumb 4.87674 -15.5721
lclavicle 4.77083e-014 -5.20816e-014
lhumerus -20.1786 -3.48157 91.1467
lradius 52.0944
lwrist 1.08391
lhand -13.1262 -9.65441
lfingers 7.12502
lthumb 12.9716 19.9224
rfemur -45.1519 -7.38677 15.4853
rtibia 61.2272
rfoot -21.529 -3.23825
rtoes -9.57878
lfemur -48.2317 -4.19488 -20.541
ltibia 63.2011
lfoot -18.6189 -11.0758
ltoes -8.60659
95
root 0.0396137 16.0908 1.83799 184.866 -9.01386 -182.918
lowerback 72.0812 -4.0617 16.3125
upperback 10.9336 -1.35802 -2.28959
thorax -8.08324 -3.2521 -8.05476
lowerneck 3.13272 -7.26917 -1.32556
upperneck 5.9272 -10.1038 4.98217
head 1.68298 -5.00695 1.71155
rclavicle 5.56597e-014 4.09496e-014
rhumerus 207.02 -172.865 -256.333
rradius 17.0993
rwrist -7.81581
rhand -21.3242 14.1371
rfingers 7.12502
rthumb 5.06129 -15.7825
lclavicle 5.56597e-014 4.09496e-014
lhumerus -20.4683 -4.03698 91.0982
lradius 52.2053
lwrist 1.49949
lhand -12.9932 -9.58837
lfingers 7.12502
lthumb 13.0997 19.9802
rfemur -45.9715 -7.39036 15.2686
rtibia 62.3039
rfoot -21.8919 -3.27111
rtoes -9.89783
lfemur -48.914 -4.2326 -20.7442
ltibia 64.027
lfoot -18.8517 -11.0872
ltoes -8.43556
96
root 0.040328 16.0272 1.83968 184.979 -9.03615 -183.114
lowerback 72.7619 -4.30122 16.5178
upperback 10.8141 -1.38761 -2.32421
thorax -8.14766 -3.27548 -8.12738
lowerneck 3.12174 -7.38521 -1.26088
upperneck 5.85704 -10.2474 4.93077
head 1.66059 -5.07589 1.68335
rclavicle -2.70347e-014 2.70347e-014
rhumerus 207.795 -172.141 -255.99
rradius 16.5398
rwrist -6.84104
rhand -21.0868 13.9739
rfingers 7.12502
rthumb 5.29053 -15.94
lclavicle -2.70347e-014 2.70347e-014
lhumerus -20.6836 -4.41722 91.0998
lradius 52.2649
lwrist 1.86226
lhand -12.9695 -9.63492
lfingers 7.12502
lthumb 13.1226 19.9322
rfemur -46.7383 -7.39032 15.0538
rtibia 63.3856
rfoot -22.2521 -3.27251
rtoes -10.1303
lfemur -49.56 -4.28355 -20.9381
ltibia 64.8807
lfoot -19.15 -11.0446
ltoes -8.47638
97
root 0.0413545 15.9604 1.84127 185.105 -9.06445 -183.328
lowerback 73.3884 -4.54214 16.6973
upperback 10.6952 -1.43494 -2.3791
thorax -8.21935 -3.30154 -8.20842
lowerneck 3.15024 -7.48369 -1.15156
upperneck 5.78009 -10.3663 4.8775
head 1.62552 -5.13274 1.64943
rclavicle -2.06736e-014 -8.74653e-015
rhumerus 208.532 -171.437 -255.716
rradius 16.0141
rwrist -5.80026
rhand -20.8216 13.8269
rfingers 7.12502
rthumb 5.54662 -16.0805
lclavicle -2.06736e-014 -8.74653e-015
lhumerus -20.9598 -4.81581 91.0592
lradius 52.4143
lwrist 2.28101
lhand -12.8599 -9.51923
lfingers 7.12502
lthumb 13.2283 20.041
rfemur -47.5379 -7.36769 14.8141
rtibia 64.4919
rfoot -22.6244 -3.3033
rtoes -10.2583
lfemur -50.2286 -4.32762 -21.1451
ltibia 65.7514
lfoot -19.4409 -11.0557
ltoes -8.42265
98
root 0.0426417 15.8915 1.84174 185.206 -9.07298 -183.524
lowerback 74.012 -4.7616 16.8631
upperback 10.5776 -1.46675 -2.42282
thorax -8.28569 -3.32325 -8.27789
lowerneck 3.15712 -7.5843 -1.04368
upperneck 5.72789 -10.4893 4.80019
head 1.60066 -5.19159 1.60696
rclavicle -6.20208e-014 4.73108e-014
rhumerus 209.154 -170.916 -255.318
rradius 15.637
rwrist -4.99496
rhand -20.5695 13.6087
rfingers 7.12502
rthumb 5.79002 -16.2922
lclavicle -6.20208e-014 4.73108e-014
lhumerus -21.1727 -5.20659 91.0255
lradius 52.4839
lwrist 2.67684
lhand -12.7802 -9.48131
lfingers 7.12502
lthumb 13.305 20.074
rfemur -48.3115 -7.35503 14.6047
rtibia 65.6036
rfoot -23.0111 -3.32334
rtoes -10.5553
lfemur -50.8901 -4.36963 -21.3291
ltibia 66.6549
lfoot -19.7337 -11.0511
ltoes -8.29418
99
root 0.0424691 15.8204 1.84175 185.308 -9.07557 -183.735
lowerback 74.5572 -4.94867 17.0025
upperback 10.4935 -1.49674 -2.42778
thorax -8.31762 -3.34685 -8.29624
lowerneck 3.1448 -7.668 -1.01929
upperneck 5.68506 -10.594 4.74073
head 1.58731 -5.24272 1.58322
rclavicle -2.38542e-014 1.35174e-014
rhumerus 209.816 -170.299 -254.973
rradius 15.2457
rwrist -3.96154
rhand -20.2713 13.4765
rfingers 7.12502
rthumb 6.07786 -16.4163
lclavicle -2.38542e-014 1.35174e-014
lhumerus -21.3731 -5.56004 91.0485
lradius 52.6053
lwrist 3.07428
lhand -12.7032 -9.32146
lfingers 7.12502
lthumb 13.3793 20.229
rfemur -49.1047 -7.32441 14.366
rtibia 66.737
rfoot -23.3876 -3.35594
rtoes -10.8981
lfemur -51.5507 -4.40049 -21.5389
ltibia 67.5713
lfoot -20.072 -11.0525
ltoes -8.32435
100
root 0.0417521 15.7451 1.84207 185.368 -9.08769 -183.947
lowerback 75.1384 -5.17322 17.1451
upperback 10.3802 -1.55091 -2.46298
thorax -8.38279 -3.37952 -8.33791
lowerneck 3.20113 -7.74201 -0.973497
upperneck 5.63743 -10.6863 4.69663
head 1.56002 -5.28857 1.56409
rclavicle 1.43125e-014 1.03368e-014
rhumerus 210.374 -169.826 -254.6
rradius 14.9293
rwrist -3.11396
rhand -19.9975 13.3105
rfingers 7.12502
rthumb 6.34225 -16.5745
lclavicle 1.43125e-014 1.03368e-014
lhumerus -21.5914 -5.8664 91.0385
lradius 52.6772
lwrist 3.41795
lhand -12.6028 -9.21851
lfingers 7.12502
lthumb 13.4761 20.3255
rfemur -49.8556 -7.313 14.1197
rtibia 67.8825
rfoot -23.7825 -3.37249
rtoes -11.1907
lfemur -52.188 -4.46227 -21.7492
ltibia 68.5156
lfoot -20.3828 -11.0534
ltoes -8.17156
101
root 0.0412976 15.6704 1.84252 185.433 -9.07919 -184.143
lowerback 75.6415 -5.35422 17.2765
upperback 10.3152 -1.58976 -2.47494
thorax -8.39459 -3.40553 -8.35983
lowerneck 3.21154 -7.81641 -0.898688
upperneck 5.59248 -10.7759 4.59556
head 1.53575 -5.33254 1.52048
rclavicle 0 1.63003e-014
rhumerus 210.935 -169.457 -254.158
rradius 14.6978
rwrist -2.45737
rhand -19.7051 13.1073
rfingers 7.12502
rthumb 6.6245 -16.769
lclavicle 0 1.63003e-014
lhumerus -21.7497 -6.19833 91.0417
lradius 52.7735
lwrist 3.71729
lhand -12.4548 -9.0015
lfingers 7.12502
lthumb 13.6187 20.533
rfemur -50.6274 -7.28021 13.8944
rtibia 69.0322
rfoot -24.1608 -3.39683
rtoes -11.4481
lfemur -52.8493 -4.45454 -21.9588
ltibia 69.476
lfoot -20.7223 -11.057
ltoes -8.11507
102
root 0.0399077 15.5919 1.84237 185.489 -9.07315 -184.338
lowerback 76.1238 -5.54862 17.422
upperback 10.2479 -1.62931 -2.4924
thorax -8.40795 -3.42996 -8.39367
lowerneck 3.20961 -7.89249 -0.836927
upperneck 5.57027 -10.8708 4.50727
head 1.52254 -5.37883 1.48209
rclavicle 3.18055e-014 -1.90833e-014
rhumerus 211.467 -168.995 -253.791
rradius 14.4622
rwrist -1.66228
rhand -19.5483 12.9771
rfingers 7.12502
rthumb 6.77584 -16.8944
lclavicle 3.18055e-014 -1.90833e-014
lhumerus -21.9254 -6.5708 91.0439
lradius 52.9011
lwrist 4.05256
lhand -12.3573 -8.82162
lfingers 7.12502
lthumb 13.7127 20.7066
rfemur -51.3972 -7.26679 13.6663
rtibia 70.1924
rfoot -24.538 -3.40416
rtoes -11.6931
lfemur -53.5068 -4.48113 -22.157
ltibia 70.4598
lfoot -21.0601 -11.0741
ltoes -8.06421
103
root 0.0379142 15.5114 1.84156 185.53 -9.06555 -184.531
lowerback 76.5622 -5.7125 17.5413
upperback 10.2041 -1.66749 -2.48148
thorax -8.39786 -3.45708 -8.38684
lowerneck 3.20693 -7.96009 -0.814136
upperneck 5.54835 -10.956 4.42102
head 1.5116 -5.42135 1.45083
rclavicle 9.22361e-014 -6.04305e-014
rhumerus 211.96 -168.687 -253.341
rradius 14.3002
rwrist -1.0479
rhand -19.3953 12.8254
rfingers 7.12502
rthumb 6.92355 -17.0414
lclavicle 9.22361e-014 -6.04305e-014
lhumerus -22.1035 -6.92996 91.076
lradius 53.0363
lwrist 4.35155
lhand -12.2714 -8.63473
lfingers 7.12502
lthumb 13.7954 20.8879
rfemur -52.1542 -7.2496 13.4339
rtibia 71.3679
rfoot -24.9217 -3.41259
rtoes -11.9185
lfemur -54.157 -4.4846 -22.3696
ltibia 71.4669
lfoot -21.4321 -11.0859
ltoes -7.99393
104
root 0.0356672 15.428 1.84022 185.574 -9.03991 -184.725
lowerback 76.9842 -5.87586 17.6568
upperback 10.1584 -1.70752 -2.49275
thorax -8.39289 -3.48126 -8.40526
lowerneck 3.23277 -8.01928 -0.802323
upperneck 5.50768 -11.03 4.36517
head 1.49209 -5.45873 1.43271
rclavicle -4.77083e-014 1.51076e-014
rhumerus 212.419 -168.396 -252.894
rradius 14.1741
rwrist -0.468634
rhand -19.3429 12.6643
rfingers 7.12502
rthumb 6.97416 -17.2008
lclavicle -4.77083e-014 1.51076e-014
lhumerus -22.2785 -7.24609 91.0993
lradius 53.1639
lwrist 4.55218
lhand -12.2051 -8.53135
lfingers 7.12502
lthumb 13.8593 20.9869
rfemur -52.94 -7.22513 13.1988
rtibia 72.5785
rfoot -25.3197 -3.40747
rtoes -12.1763
lfemur -54.8445 -4.47639 -22.5853
ltibia 72.5177
lfoot -21.7858 -11.1134
ltoes -7.92097
105
root 0.0333773 15.341 1.8385 185.615 -9.02115 -184.919
lowerback 77.3722 -6.03483 17.7645
upperback 10.1199 -1.75192 -2.49179
thorax -8.38269 -3.50803 -8.40551
lowerneck 3.24882 -8.07358 -0.779268
upperneck 5.47287 -11.0969 4.28088
head 1.47327 -5.4928 1.40351
rclavicle 3.18055e-014 -8.82604e-014
rhumerus 212.88 -168.075 -252.53
rradius 14.0534
rwrist 0.172521
rhand -19.4227 12.557
rfingers 7.12502
rthumb 6.89717 -17.3107
lclavicle 3.18055e-014 -8.82604e-014
lhumerus -22.4429 -7.61658 91.1152
lradius 53.3023
lwrist 4.79419
lhand -12.0994 -8.39723
lfingers 7.12502
lthumb 13.9613 21.114
rfemur -53.7496 -7.23168 12.975
rtibia 73.8259
rfoot -25.7038 -3.41284
rtoes -12.4278
lfemur -55.5331 -4.47352 -22.7996
ltibia 73.5931
lfoot -22.1779 -11.1441
ltoes -7.84305
